<svg xmlns="http://www.w3.org/2000/svg" viewBox="0 0 485 485"><path d="M425 218.87V27.514H0v315.542h227.015c7.458 64.327 62.261 114.43 128.555 114.43 71.368 0 129.43-58.062 129.43-129.43 0-45.838-23.954-86.184-60-109.186zm-69.43-20.243c-19.216 0-37.464 4.215-53.877 11.76l-27.888-25.102L395 76.197v128.578a128.955 128.955 0 0 0-39.43-6.148zm-143.07 1.477L54.086 57.514h316.828L212.5 200.104zm-61.306-14.819L30 294.373V76.197l121.194 109.088zm22.422 20.182l38.884 35 38.884-35 23.684 21.319c-26.104 20.793-44.015 51.446-48.053 86.271H54.086l119.53-107.59zM355.57 427.486c-54.825 0-99.43-44.604-99.43-99.43s44.604-99.429 99.43-99.429c54.826 0 99.43 44.604 99.43 99.429s-44.604 99.43-99.43 99.43z"/><path d="M370.57 266.44h-30v46.616h-46.616v30h46.616v46.616h30v-46.616h46.617v-30H370.57z"/></svg>